<svg xmlns="http://www.w3.org/2000/svg" viewBox="0 0 1440 320">
  <defs>
    <linearGradient id="gradient" x1="0%" y1="0%" x2="100%" y2="0%">
      <stop offset="0%" style="stop-color:#1a73e8;stop-opacity:0.1" />
      <stop offset="100%" style="stop-color:#1a73e8;stop-opacity:0.3" />
    </linearGradient>
  </defs>
  <path fill="url(#gradient)" fill-opacity="1" d="M0,64L48,80C96,96,192,128,288,128C384,128,480,96,576,90.7C672,85,768,107,864,122.7C960,139,1056,149,1152,144C1248,139,1344,117,1392,106.7L1440,96L1440,320L1392,320C1344,320,1248,320,1152,320C1056,320,960,320,864,320C768,320,672,320,576,320C480,320,384,320,288,320C192,320,96,320,48,320L0,320Z"></path>
</svg>
